Patient4_TMGait_0pt3_03_right_21_EMG.mot
version=1
nRows=26
nColumns=33
inDegrees=no
endheader
time	1LAddLong	2LGlutMax	3LGlutMed	4LIliopsoas	5LSemiMemb	6LBicFemLong	7LRecFem	8LVastMed	9LVastLat	10LGasMed	11LTibAnt	12lTibPost	13LPeroneusLong	14LSol	15LExtDigLong	16LFlexDigLong	17RAddLong	18RGlutMax	19RGlutMed	20RIliopsoas	21RSemiMemb	22RBicFemLong	23RRecFem	24RVastMed	25RVastLat	26RGasMed	27RTibAnt	28RTibPost	29RPeroneusLong	30RSol	31RExtDigLong	32RFlexDigLong
40.535	-0.005188	0.017548	-0.042725	0.016632	0.025177	0.032043	0.042114	-0.000458	-0.027466	0.015411	0.00946	-0.02655	-0.21286	-0.036469	0.1564	-0.039978	-0.01297	-0.041809	0.22324	0.04364	0.005035	0.000763	-0.026093	-0.00885	0.070038	-0.017853	0.056305	-0.00412	-0.069122	0.16541	0.002136	-0.018158
40.536	0.001221	-0.022278	-0.11581	0.010834	0.007324	0.054474	-0.070953	0.01358	-0.024414	0.023346	0.10849	-0.029755	-0.25925	-0.005951	0.14908	-0.045624	-0.007782	-0.047607	0.26581	0.027161	-0.004425	-0.027466	-0.048523	-0.060272	0.098724	-0.02121	-0.013733	-0.009918	0.35584	0.14923	-0.005798	-0.024109
40.537	0.001373	-0.025024	-0.15259	0.001526	-0.043335	0.076752	-0.06012	0.016632	-0.005798	0.000916	0.22217	-0.035095	-0.2739	0.01358	0.10117	-0.045319	-0.00061	-0.054474	0.26062	-0.062103	-0.00885	-0.028992	-0.010681	-0.085602	0.027008	-0.022278	0.43198	-0.007019	0.12146	0.083771	0.001373	-0.017395
40.538	-0.050201	-0.023956	-0.10284	0.009308	-0.081787	0.076904	-0.085907	0.023346	0.030975	0.000305	0.3035	-0.04364	-0.31082	0.078583	0.32318	-0.054932	-0.002747	-0.016174	0.15259	-0.088043	-0.005646	-0.026245	-0.12573	-0.045624	0.091705	-0.007019	0.83725	-0.007477	-0.71732	-0.11261	0.005493	-0.017242
40.539	-0.053864	0.004272	-0.072632	0.002289	-0.075531	0.027618	-0.058289	0.017395	0.1442	0	0.33981	-0.042725	-0.31342	0.029907	0.5014	-0.045624	-0.004578	-0.009918	0.058594	-0.081024	0.001373	-0.003204	-0.15106	0.07431	0.23758	0.009766	0.60883	-0.00946	-0.4747	-0.19302	0.001526	-0.013428
40.54	-0.029297	-0.036469	-0.071869	0.006104	-0.017395	-0.043488	-0.02243	0.019531	0.11673	-0.011902	0.37399	-0.037689	-0.27435	0.02594	0.24445	-0.033112	-0.001373	-0.038757	-0.016327	-0.076294	0.002899	0.002289	-0.028534	0.15091	0.23712	-0.000763	0.12405	-0.006256	-0.36224	-0.1619	0.000153	-0.013733
40.541	-0.011444	-0.021515	0.002136	0.011292	0.016327	-0.087891	0.006714	0.003967	0.035095	-0.049896	0.054169	-0.047455	-0.037689	0.079193	0.3096	-0.094452	0.010834	-0.10056	0.024719	0.053711	0.008392	0.009918	-0.10223	0.1001	0.17105	-0.002594	-0.47882	-0.005188	-0.24567	-0.077362	0.001221	-0.01236
40.542	-0.023193	-0.017548	0.03479	0.009003	-0.009308	-0.066833	0.040741	0.016937	-0.021973	-0.058136	-0.18204	-0.049286	-0.050659	0.059509	0.1712	-1.5701	0.008698	-0.15884	0.066528	0.17288	0.00824	-0.002441	-0.006561	0.095062	0.099182	-0.000763	-0.055542	-0.007935	0.022736	0.041046	0.000153	-0.014496
40.543	-0.033875	-0.045929	0.037079	0.010529	-0.011444	-0.04715	0.074463	0.005341	-0.05249	-0.012054	-0.31281	-0.050964	-0.16907	0.17075	0.49393	0.95505	0.022125	-0.16876	0.11856	0.17654	0.009766	-0.007629	0.058594	0.000153	0.019226	-0.009613	-0.26001	-0.009918	0.062866	0.00061	0.000305	-0.014648
40.544	-0.024872	-0.0383	0.005035	0.005341	-0.045319	-0.009308	0.057373	-0.00473	-0.018311	0.039368	-0.23209	-0.05188	-0.25955	0.17059	1.3658	0.56335	0.008087	-0.14893	0.077362	0.080719	0.001984	-0.012054	-0.11932	-0.028687	-0.088501	0.000153	-0.16464	-0.007019	-0.12283	-0.050964	0.000305	-0.015717
40.545	-0.020447	-0.014648	-0.003662	0.016632	-0.033569	0.046844	0.002136	-0.005493	0.075684	0.025482	0.054016	-0.046387	-0.2832	0.22675	-0.28503	-0.072632	-0.003052	-0.089874	0.027924	0.029755	0.016632	0.007477	-0.36209	0.010071	-0.12375	-0.001221	-0.14923	-0.010071	-0.058441	-0.050964	0.00061	-0.007477
40.546	-0.021667	0.00885	-0.058746	0.009155	-0.047913	0.066681	-0.13672	0.00885	-0.033569	-0.01297	0.1947	-0.041809	-0.26504	0.21851	-0.61905	-0.21408	-0.016785	-0.050507	-0.031586	0.012207	0.011749	0.020599	-0.40817	-0.020447	-0.034943	0.00885	-0.32135	-0.008698	-0.002747	-0.07309	-0.002136	-0.006561
40.547	-0.015869	-0.051422	-0.10941	0.003815	-0.075989	0.077667	-0.17899	0.026245	-0.10773	-0.050659	-0.11108	-0.045013	-0.18402	0.14145	-1.1244	0.26123	-0.017242	-0.15305	-0.001984	0.012817	0.018463	0.01709	-0.31281	0.033112	0.033722	-0.010986	-0.35019	-0.005646	-0.029449	0.044098	0.001526	-0.016785
40.548	0.004425	-0.089874	-0.1355	0.007935	0.073395	0.078735	-0.19821	0.023804	-0.1294	-0.00885	-0.088806	-0.033112	-0.19653	0.004883	-0.66467	-0.17166	-0.00061	-0.21103	0.046844	0.030518	0.012054	0.00946	-0.27939	0.042572	0.079041	-0.010071	-0.30258	-0.006714	0.014496	0.084991	0.00412	-0.014648
40.549	0.018463	-0.076904	-0.17792	0.011902	0.087585	0.09201	-0.19531	0.027771	-0.04303	0.044708	-0.19302	-0.034485	-0.11704	-0.16052	-0.49744	-0.001678	0.003815	-0.17899	0.041046	-0.059662	0.016022	-0.010223	-0.17914	0.10956	0.13092	-0.010223	0.42084	-0.00885	-0.29709	-0.042572	-0.005188	-0.011292
40.55	0.009003	-0.041504	-0.060883	0	0.012512	0.09552	-0.27405	0.029449	0.020294	0.072327	-0.1593	-0.046387	-0.027313	-0.20447	-0.30548	0.004578	0.012054	-0.18814	0.069733	-0.13412	0.010986	-0.009155	0.046844	0.112	0.082397	-0.001678	0.84152	-0.00412	-0.57144	-0.098114	0.001831	-0.008698
40.551	0.017242	-0.014648	-0.1178	-0.00351	-0.018311	0.10376	-0.18951	0.026855	0.017242	0.080566	-0.088654	-0.029755	0.00412	-0.15549	-0.068207	-0.018616	0.009155	-0.16419	0.046539	-0.083008	0.008698	-0.002441	0.079956	-0.000458	0.004883	-0.001831	0.47119	-0.006256	-0.2861	-0.050507	0	-0.012512
40.552	0.00473	0.002289	-0.081024	-0.021362	0.021515	0.084076	-0.036774	-0.005035	0.032196	0.07431	-0.069427	-0.024719	0.016479	-0.16815	0.22415	0.02243	0.009766	-0.13412	-0.006104	-0.071259	0.01358	-0.018616	0.024567	-0.001221	-0.005798	0.00351	-0.13534	-0.009308	-0.11185	-0.091553	0.000916	-0.012512
40.553	-0.005341	0.041656	-0.02533	-0.00885	0.048981	0.054016	0.078735	-0.010834	0.18707	0.07782	-0.03891	-0.018616	0.023499	-0.15915	0.081024	-0.26718	0.001831	-0.2005	0.063477	-0.10254	0.016022	0.017395	-0.12634	0.015717	-0.014801	-0.005188	-0.10025	-0.005493	-0.014954	-0.16403	0.000916	-0.011292
40.554	0.000305	-0.027161	0.056	0.012665	0.014801	0.050507	0.09201	-0.004883	0.24399	0.055695	-0.011444	-0.002594	0.025787	-0.090637	0.25986	0.014801	-0.005341	-0.20905	0.12817	-0.11505	0.012054	0.022736	-0.27374	0.005951	0.068512	-0.01358	0.61371	-0.011444	-0.083771	0.055695	-0.002136	-0.017395
40.555	0.007172	-0.090637	0.010071	0.019684	-0.049438	0.013123	0.11612	-0.009613	0.20783	0.050659	0.082245	-0.01236	0.043793	-0.075836	0.15121	0.093231	-0.009766	-0.23956	-0.015106	-0.11276	0.016174	0.009766	-0.26352	-0.014191	0.11826	-0.019684	0.76263	-0.008392	-0.11459	0.12482	0.000763	-0.022125
40.556	-0.004578	-0.070343	-0.012207	0.014343	-0.073395	-0.028534	0.12421	-0.004425	0.13916	0.061493	0.022583	-0.009613	0.057526	-0.014496	0.098877	-0.002899	-0.001221	-0.13763	-0.024261	0.015411	0.015564	0.014191	-0.18509	0.058746	0.20264	-0.005646	-0.19409	-0.001984	0.30746	-0.071411	0.000305	-0.012512
40.557	0.004425	-0.016937	0.081635	-0.001984	-0.071106	-0.050201	0.12299	0.017242	0.053864	0.05661	-0.13763	-0.00412	0.03952	0.023651	0.22842	-0.020142	-0.010071	-0.13947	-0.010834	0.20432	0.026245	-0.020599	-0.22934	0.044861	0.22553	0.001984	-0.74966	-0.005646	0.21194	-0.067139	-0.002747	-0.015106
40.558	0.011444	-0.04837	0.043182	0.011902	-0.023346	-0.005798	0.10834	0.041351	-0.00946	0.052338	-0.15762	-0.005035	0.046387	0.068054	0.06485	-0.08728	-0.008698	-0.21316	0.071564	0.19592	0.023041	0.001526	-0.26215	0.033722	0.25116	0.001831	-0.42053	-0.007935	-0.072784	-0.13901	0.000305	-0.006561
40.559	0.0177	-0.030518	-0.01297	0.005493	0.044708	-0.011902	0.012207	0.054169	0.089874	0.041351	-0.16205	0	0.086823	0.14374	0.4602	-0.040131	0.00061	-0.28427	0.30685	0.078125	0.008545	-0.0177	-0.15656	-0.028534	0.21286	0.019531	-0.25818	-0.007324	0.15045	-0.12054	-0.005188	-0.000916
40.56	-0.010834	-0.023956	-0.05188	0.002899	0.036926	0.019836	0.010071	0.053253	0.2269	0.030518	-0.08255	-0.009155	0.1384	0.10223	0.15366	-0.058899	0.009003	-0.27115	0.024109	0.059814	0.012207	-0.012512	-0.20645	0.003815	0.13596	-0.00473	-0.298	-0.010834	0.29602	0.15152	-0.003052	-0.005188
